<svg xmlns="http://www.w3.org/2000/svg" width="895.099" height="625.583" viewBox="0 0 895.099 625.583">
  <g id="Group_381" data-name="Group 381" transform="translate(-130.226 -2823.266)">
    <path id="Path_30" data-name="Path 30" d="M2243.26,672.289c-38-24.642-86.448-36.444-129.482-22.322s-77.028,58.221-71.089,103.123c1.667,12.607,6.228,25.065,4.788,37.7-3.819,33.519-43.7,47.407-75.884,57.521-80.339,25.248-156.451,74.705-196.165,148.966-12.373,23.137-20.385,53.309-4.6,74.27,10.982,14.586,30.225,19.972,48.257,22.844,99.925,15.912,206.733-20.708,275.873-94.587,22.087-23.6,41.124-51.181,69.044-67.47,56.755-33.11,128.052-9.408,193.757-9.989,68.756-.61,136.768-30.573,183.622-80.9,20.042-21.527,37-49.179,34.166-78.455-4.3-44.345-52.357-72.461-96.8-75.6s-88.24,10.828-132.7,13.745S2250.7,691.769,2243.26,672.289Z" transform="translate(-1731.521 2775.309) rotate(-13)" fill="#edd3c0"/>
    <text id="THE_BEGINNING" data-name="THE BEGINNING" transform="translate(489.879 3160.557)" fill="#b8795e" font-size="70" font-family="IvyPrestoDisplay-SemiBold, IvyPresto Display" font-weight="600"><tspan x="0" y="0">THE BEGINNING</tspan></text>
  </g>
</svg>
