<?xml version="1.0" encoding="utf-8"?>
<!-- Generator: Adobe Illustrator 25.2.3, SVG Export Plug-In . SVG Version: 6.00 Build 0)  -->
<svg version="1.1" id="Layer_1" xmlns="http://www.w3.org/2000/svg" xmlns:xlink="http://www.w3.org/1999/xlink" x="0px" y="0px"
	 viewBox="0 0 687.7 519.9" style="enable-background:new 0 0 687.7 519.9;" xml:space="preserve">
<style type="text/css">
	.st0{fill:#F3CF90;}
	.st1{fill:none;stroke:#3F4C5A;stroke-width:2;stroke-miterlimit:10;}
</style>
<g id="Group_382" transform="translate(-98.042 -3926.671)">
	<path id="Path_323" class="st0" d="M487.2,4064.1c-48.3,12.4-94-26.9-123.7-67c-18.4-24.8-37.7-53.3-68-59.3
		c-42-8.4-77.9,31.5-96.1,70.3c-37.5,80-42.6,174.6-13.7,258.1c12.1,35,33.3,70.9,68.6,81.9c40.4,12.5,81.8-11.9,119.6-31.1
		c32.5-16.5,67.5-29.9,103.9-31.8c36.5-1.8,74.8,9.2,100,35.6c23.9,25,39.6,64.7,73.9,68.6c10.5,1.2,21.2-1.5,31-5.8
		c39.7-17.4,63.8-58,79.8-98.2c13.8-34.7,23.7-73.4,12.5-109.1c-16.7-53.3-74-82-127.5-98.3C593.2,4061.4,536.7,4051.4,487.2,4064.1
		z"/>
	<path id="Path_895" class="st1" d="M432.2,4101.1c-48.3,12.4-94-26.9-123.7-67c-18.4-24.8-37.7-53.3-68-59.3
		c-42-8.4-77.9,31.5-96.1,70.3c-37.5,80-42.6,174.6-13.7,258.1c12.1,35,33.3,70.9,68.6,81.9c40.4,12.5,81.8-11.9,119.6-31.1
		c32.5-16.5,67.5-29.9,103.9-31.8c36.5-1.8,74.8,9.2,100,35.6c23.9,25,39.6,64.7,73.9,68.6c10.5,1.2,21.2-1.5,31-5.8
		c39.7-17.4,63.8-58,79.8-98.2c13.8-34.7,23.7-73.4,12.5-109.1c-16.7-53.3-74-82-127.5-98.3C538.2,4098.4,481.7,4088.4,432.2,4101.1
		z"/>
</g>
</svg>
