<?xml version="1.0" encoding="utf-8"?>
<!-- Generator: Adobe Illustrator 25.2.3, SVG Export Plug-In . SVG Version: 6.00 Build 0)  -->
<svg version="1.1" id="Layer_1" xmlns="http://www.w3.org/2000/svg" xmlns:xlink="http://www.w3.org/1999/xlink" x="0px" y="0px"
	 viewBox="0 0 766.7 474" style="enable-background:new 0 0 766.7 474;" xml:space="preserve">
<style type="text/css">
	.st0{fill:#B8795E;}
	.st1{fill:none;stroke:#3F4C5A;stroke-width:2;stroke-miterlimit:10;}
</style>
<g id="Group_383" transform="translate(-120.04 -5323.622)">
	<path id="Path_897" class="st0" d="M268.5,5505.5c18-64.9,94.1-107.2,158.8-88.1c16.1,4.7,31.3,12.7,47.9,15.3
		c41.6,6.4,79.8-21.3,114.6-45c46-31.3,99.3-58.8,154.6-52.7s107.8,59.4,93.9,113.2c-13.5,52.5-74.5,73.3-121.6,100.1
		c-55.7,31.7-99.3,80.5-150.2,119.3c-51,38.8-116.2,68.3-178.1,51.5c-64.8-17.6-116.7-83.3-183.4-75.3c-14.7,1.8-29,7.2-43.9,7
		s-31.3-8.9-33.3-23.6c-1.9-14.2,10.2-26.3,22-34.5C195.8,5560.3,257.9,5543.7,268.5,5505.5z"/>
	<path id="Path_898" class="st1" d="M298.1,5568c18-64.9,94.1-107.2,158.8-88.1c16.1,4.7,31.3,12.7,47.9,15.3
		c41.6,6.4,79.8-21.3,114.6-45c46-31.3,99.3-58.8,154.6-52.7s107.8,59.4,93.9,113.2c-13.5,52.5-74.5,73.3-121.6,100.1
		c-23,13.1-43.9,29.1-64.4,46.3c-28.6,24-55.9,50.3-85.9,73.1c-51,38.8-116.2,68.3-178.1,51.5c-64.8-17.6-116.7-83.3-183.4-75.3
		c-14.7,1.8-29,7.2-43.9,7c-14.8-0.3-31.3-8.9-33.3-23.6c-1.9-14.2,10.2-26.3,22-34.5C225.4,5622.8,287.5,5606.2,298.1,5568z"/>
</g>
</svg>
