<?xml version="1.0" encoding="utf-8"?>
<!-- Generator: Adobe Illustrator 25.2.3, SVG Export Plug-In . SVG Version: 6.00 Build 0)  -->
<svg version="1.1" id="Layer_1" xmlns="http://www.w3.org/2000/svg" xmlns:xlink="http://www.w3.org/1999/xlink" x="0px" y="0px"
	 viewBox="0 0 711.2 501.5" style="enable-background:new 0 0 711.2 501.5;" xml:space="preserve">
<style type="text/css">
	.st0{fill:none;stroke:#3F4C5A;stroke-width:2.0009;stroke-miterlimit:10.0047;}
	.st1{fill:#8C9E6B;}
</style>
<g id="Group_381" transform="translate(-1042.809 -3493)">
	<path id="Path_896" class="st0" d="M1239.9,3556.9c-49.3-8.6-103.8-5.4-143.9,24.6c-40.1,30-57.6,92.6-26.8,132.1
		c40.5,51.9,131.4,36.2,173.1,87c19.6,23.9,23.2,56.9,36.1,85.1c18.2,39.8,55.4,68.9,96.6,83.8c41.1,14.9,86,16.9,129.6,12.9
		c77.4-7,157.1-35,205.3-95.8c18.5-23.3,32-52.5,28.6-82c-4.4-39.1-36.4-68.9-68.5-91.6C1540.9,3621.6,1382.2,3581.8,1239.9,3556.9z
		"/>
	<path id="Path_599" class="st1" d="M1239.9,3504.2c-49.3-8.6-103.8-5.4-143.9,24.6c-40.1,30-57.6,92.6-26.8,132.1
		c40.5,51.9,131.4,36.2,173.1,87c19.6,23.9,23.2,56.9,36.1,85.1c18.2,39.8,55.4,68.9,96.6,83.8c41.1,14.9,86,16.9,129.6,12.9
		c77.4-7,157.1-35,205.3-95.8c18.5-23.3,32-52.5,28.6-82c-4.4-39.1-36.4-68.9-68.5-91.6C1540.9,3568.8,1382.2,3529.1,1239.9,3504.2z
		"/>
</g>
</svg>
